<?xml version="1.0" encoding="iso-8859-1"?>
<!-- Generator: Adobe Illustrator 19.0.0, SVG Export Plug-In . SVG Version: 6.00 Build 0)  -->
<svg version="1.1" id="Capa_1" xmlns="http://www.w3.org/2000/svg" xmlns:xlink="http://www.w3.org/1999/xlink" x="0px" y="0px"
	 viewBox="0 0 461.96 461.96" style="enable-background:new 0 0 461.96 461.96;" xml:space="preserve">
<g>
	<g>
		<path d="M128.223,297.32l-0.44-0.48c-8.406-8.402-22.031-8.4-30.434,0.006c-8.402,8.406-8.4,22.031,0.006,30.434
			c8.403,8.4,22.024,8.4,30.428,0C136.042,319.07,136.237,305.769,128.223,297.32z M118.063,317.48
			c-1.454,1.449-3.427,2.256-5.48,2.24v0.04c-4.241-0.033-7.653-3.498-7.62-7.739s3.498-7.653,7.739-7.62
			c1.992,0.015,3.9,0.804,5.321,2.2l0.32,0.32c1.278,1.397,1.978,3.227,1.96,5.12C120.313,314.08,119.506,316.038,118.063,317.48z"
			/>
	</g>
</g>
<g>
	<g>
		<g>
			<path d="M250.623,198.92c0.017,1.806,0.74,3.534,2.014,4.814c2.695,2.71,7.077,2.721,9.786,0.026l5.36-5.36l130.88-129.96
				c0.01-0.01,0.02-0.02,0.03-0.03c2.678-2.695,2.665-7.051-0.03-9.73C361.301,21.127,310.516,0.01,257.543,0h-2.12c0,0,0,0,0,0
				c-3.8,0.022-6.862,3.12-6.84,6.92l2.04,189.48V198.92z M264.343,182.2V37.64l0.08-0.04c38.027,1.593,74.262,16.6,102.28,42.36
				L264.343,182.2z M262.423,13.68c45.206,1.186,88.415,18.871,121.48,49.72l-7.12,7.08c-31.189-28.943-71.828-45.574-114.36-46.8
				V13.68z"/>
			<path d="M372.223,122.68l-0.36-0.4c-2.699-2.685-7.061-2.685-9.76,0l-124,124V94.6V70.92c0.001-0.04,0.001-0.081,0.001-0.121
				c-0.001-3.822-3.099-6.92-6.921-6.919C178.57,63.826,128.076,84.606,90.74,121.677c-78.007,77.452-78.456,203.477-1.003,281.483
				s203.477,78.456,281.483,1.003S449.676,200.687,372.223,122.68z M350.103,153.8c25.751,28.008,40.758,64.227,42.36,102.24h-144.6
				L350.103,153.8z M392.463,269.8l0,0.08c-1.602,38.013-16.609,74.232-42.36,102.24l-30.52-30.52l-71.72-71.8H392.463z
				 M238.103,279.64l102.36,102.16l-0.12,0.08c-28.008,25.751-64.227,40.758-102.24,42.36V279.64z M214.503,256.04h-144.6
				c1.602-38.013,16.609-74.232,42.36-102.24L214.503,256.04z M121.903,144.04l0.12-0.04c28.015-25.734,64.233-40.725,102.24-42.32
				v144.6L121.903,144.04z M214.503,269.84l-71.76,71.8l-30.48,30.48c-25.76-28.018-40.767-64.253-42.36-102.28H214.503z
				 M224.463,279.64v144.52l-0.2,0.08c-38.013-1.602-74.232-16.609-102.24-42.36L224.463,279.64z M238.788,448.277
				c-102.249,4-188.381-75.647-192.381-177.896C42.407,168.132,122.054,82,224.303,78v10
				c-41.656,1.686-81.344,18.175-111.931,46.502c-70.977,65.731-75.229,176.555-9.498,247.532s176.555,75.229,247.531,9.498
				S425.634,214.977,359.903,144l7.28-7.08c30.204,32.458,47.768,74.672,49.501,118.976
				C420.684,358.145,341.037,444.277,238.788,448.277z"/>
			<path d="M186.383,153.88c4.017-4.026,6.277-9.479,6.286-15.166c0.019-11.885-9.601-21.535-21.486-21.554v-0.2
				c-5.822-0.035-11.41,2.292-15.488,6.448c-8.324,8.483-8.195,22.108,0.288,30.432c8.21,8.259,21.511,8.454,29.96,0.44
				L186.383,153.88z M176.623,144l-0.24,0.28c-3.052,2.748-7.715,2.643-10.64-0.24c-3.004-3.004-3.004-7.876,0-10.88
				c3.004-3.004,7.876-3.004,10.88,0v-0.04C179.613,136.13,179.613,140.99,176.623,144z"/>
			<path d="M97.463,194.68c-0.006,0.006-0.012,0.012-0.018,0.018c-7.181,7.191-7.172,18.841,0.018,26.022
				c0.006,0.006,0.012,0.012,0.018,0.018c7.191,7.181,18.841,7.172,26.022-0.018c7.054-7.007,7.249-18.355,0.44-25.6l-0.44-0.48
				c-3.456-3.462-8.148-5.405-13.04-5.4C105.58,189.256,100.903,191.213,97.463,194.68z M113.943,204.6
				c1.563,1.847,1.476,4.576-0.2,6.32c-1.821,1.789-4.739,1.789-6.56,0c-1.763-1.816-1.763-4.704,0-6.52
				c1.812-1.811,4.748-1.811,6.56,0L113.943,204.6z"/>
			<path d="M307.348,130.245c7.555-6.829,8.144-18.49,1.316-26.045l-0.44-0.48c-3.456-3.462-8.148-5.405-13.04-5.4
				c-4.897,0.006-9.59,1.964-13.04,5.44c-0.006,0.006-0.012,0.012-0.018,0.018c-7.181,7.191-7.172,18.841,0.018,26.022
				C289.116,136.564,300.141,136.759,307.348,130.245z M291.903,113.52c1.812-1.811,4.748-1.811,6.56,0l0.24,0.2
				c1.756,1.878,1.658,4.824-0.22,6.58c-1.878,1.756-4.824,1.658-6.58-0.22C290.114,118.259,290.114,115.341,291.903,113.52z"/>
			<path d="M353.983,203.48c-4.024-4.045-9.494-6.32-15.2-6.32v-0.24c-5.544,0.062-10.849,2.27-14.8,6.16l-0.44,0.4
				c-8.4,8.403-8.4,22.024,0,30.428c8.402,8.406,22.028,8.409,30.434,0.006C362.383,225.511,362.386,211.886,353.983,203.48z
				 M344.223,224.042c-2.994,3.004-7.857,3.013-10.861,0.019c-3.004-2.994-3.013-7.857-0.019-10.861l0.24-0.28
				c3.052-2.748,7.715-2.643,10.64,0.24v0.04C347.21,216.197,347.21,221.045,344.223,224.042z"/>
			<path d="M278.623,378.92c-3.423-3.535-8.119-5.552-13.04-5.6c-4.921,0.048-9.617,2.065-13.04,5.6
				c-7.032,7.02-7.237,18.35-0.464,25.62c6.942,7.451,18.61,7.864,26.062,0.922s7.864-18.61,0.922-26.062L278.623,378.92z
				 M268.841,395.066c-1.808,1.816-4.746,1.823-6.562,0.016s-1.823-4.746-0.016-6.562c1.812-1.811,4.748-1.811,6.56,0l0.24,0.24
				C270.65,390.597,270.553,393.346,268.841,395.066z"/>
			<path d="M269.223,319.76c0.006,0,0.013,0.001,0.019,0.001c0.007,0,0.014-0.001,0.021-0.001H269.223z"/>
			<path d="M359.743,328l0.48-0.44c3.459-3.459,5.402-8.15,5.402-13.042c-0.001-10.184-8.258-18.439-18.442-18.438
				c-4.892-0.005-9.584,1.938-13.04,5.4c-6.764,6.973-6.959,17.997-0.445,25.204C340.527,334.24,352.188,334.829,359.743,328z
				 M343.983,311.24c1.812-1.811,4.748-1.811,6.56,0h0.04c1.811,1.812,1.811,4.748,0,6.56l-0.24,0.24
				c-1.878,1.756-4.824,1.658-6.58-0.22C342.007,315.942,342.106,312.996,343.983,311.24z"/>
			<path d="M215.183,180.96c-3.528-3.428-8.282-5.301-13.2-5.2v-0.2c-4.88-0.026-9.571,1.888-13.04,5.32
				c-0.006,0.006-0.012,0.012-0.018,0.018c-7.181,7.191-7.172,18.841,0.018,26.022c7.036,7.367,18.713,7.636,26.08,0.6
				c7.367-7.036,7.636-18.713,0.6-26.08L215.183,180.96z M205.383,197.6c-1.878,1.812-4.869,1.758-6.68-0.12
				c-1.789-1.821-1.789-4.739,0-6.56c1.812-1.811,4.748-1.811,6.56,0h0.24C207.315,192.798,207.261,195.788,205.383,197.6z"/>
			<path d="M269.242,319.761c-4.67-0.003-9.167,1.769-12.579,4.959l-0.48,0.44c-0.001,0.001-0.001,0.001-0.002,0.002
				c-7.201,7.202-7.2,18.877,0.002,26.078c3.458,3.457,8.147,5.399,13.036,5.4c10.184,0.001,18.441-8.254,18.442-18.438
				C287.662,328.024,279.418,319.772,269.242,319.761z M272.522,340.924c-1.652,1.959-4.579,2.208-6.538,0.556
				c-1.811-1.812-1.811-4.748,0-6.56l0.2-0.24c1.85-1.571,4.594-1.467,6.32,0.24C273.978,336.647,273.986,339.188,272.522,340.924z"
				/>
			<path d="M204.943,337.24c-4.026-4.042-9.495-6.315-15.2-6.32l-0.04,0.04c-5.727-0.009-11.222,2.266-15.268,6.32
				c-8.395,8.413-8.38,22.039,0.034,30.434c8.413,8.395,22.039,8.38,30.434-0.034c8.259-8.21,8.454-21.511,0.44-29.96
				L204.943,337.24z M195.183,357.8c-2.997,2.987-7.845,2.987-10.842,0c-3.004-2.994-3.013-7.857-0.019-10.861
				c2.994-3.004,7.857-3.013,10.861-0.019C198.151,349.939,198.151,354.781,195.183,357.8z"/>
		</g>
	</g>
</g>
<g>
</g>
<g>
</g>
<g>
</g>
<g>
</g>
<g>
</g>
<g>
</g>
<g>
</g>
<g>
</g>
<g>
</g>
<g>
</g>
<g>
</g>
<g>
</g>
<g>
</g>
<g>
</g>
<g>
</g>
</svg>
